<?xml version="1.0" encoding="UTF-8" standalone="no"?>
<!-- Created with Inkscape (http://www.inkscape.org/) -->

<svg
   width="156.40576mm"
   height="142.12845mm"
   viewBox="0 0 156.40576 142.12845"
   version="1.1"
   id="svg1"
   xml:space="preserve"
   xmlns:inkscape="http://www.inkscape.org/namespaces/inkscape"
   xmlns:sodipodi="http://sodipodi.sourceforge.net/DTD/sodipodi-0.dtd"
   xmlns="http://www.w3.org/2000/svg"
   xmlns:svg="http://www.w3.org/2000/svg"><sodipodi:namedview
     id="namedview1"
     pagecolor="#ffffff"
     bordercolor="#000000"
     borderopacity="0.25"
     inkscape:showpageshadow="2"
     inkscape:pageopacity="0.0"
     inkscape:pagecheckerboard="0"
     inkscape:deskcolor="#d1d1d1"
     inkscape:document-units="mm"><inkscape:page
       x="4.7487306e-06"
       y="3.2544306e-06"
       width="156.40576"
       height="142.12845"
       id="page3"
       margin="0"
       bleed="0" /></sodipodi:namedview><defs
     id="defs1" /><g
     id="g1"
     inkscape:groupmode="layer"
     inkscape:label="1"
     transform="matrix(0.26458333,0,0,0.26458334,187.64856,-59.250189)"><g
       id="g2"><path
         id="path3"
         d="m -370.51118,761.1161 c -54.36267,0 -111.6,-13.91719 -165.36133,-43.05053 -148.58466,-80.51586 -214.31802,-246.76652 -146.818,-371.32919 43.0776,-79.49333 130.01133,-122.79866 225.898,-122.79866 54.36133,0 111.59866,13.91733 165.35866,43.04933 148.58533,80.51867 214.31866,246.76933 146.81866,371.33066 -43.07733,79.4932 -130.01066,122.79839 -225.89599,122.79839 m -92.81867,-93.99839 c -0.0107,0.23733 0.0187,0.63866 0.14134,1.28133 0.33333,1.73867 0,3.88133 0,5.65067 0,5.23333 0,10.468 0,15.70133 0,8.27333 0,16.54533 0,24.81867 0,0.76413 0.776,1.212 1.444,1.212 15.16,0 30.31866,0 45.47733,0 0.72133,0 1.16,-0.688 1.208,-1.32814 h 62.912 v -51.1612 c 0,0 82.42799,-9.096 98.91199,-80.72266 0.008,-0.0293 0.0147,-0.064 0.0227,-0.0933 0.001,-0.009 0.003,-0.0147 0.005,-0.0227 0.005,-0.0267 0.012,-0.0573 0.0187,-0.084 0.001,-0.004 0.001,-0.008 0.003,-0.012 0.007,-0.0307 0.0147,-0.0653 0.0213,-0.096 0.001,-0.004 0.003,-0.012 0.004,-0.016 0.007,-0.028 0.0133,-0.0587 0.02,-0.0853 0,-0.005 0.001,-0.009 0.003,-0.0133 0.008,-0.0333 0.0147,-0.0653 0.0227,-0.0987 l 0.001,-0.007 c 0.007,-0.0307 0.0147,-0.064 0.0213,-0.0947 l 0.001,-0.009 c 0.016,-0.0653 0.0307,-0.132 0.0453,-0.19867 0.001,-0.004 0.001,-0.007 0.003,-0.012 0.0147,-0.068 0.0293,-0.132 0.0453,-0.20133 v -0.005 c 0.016,-0.068 0.0307,-0.136 0.0453,-0.204 l 10e-4,-0.004 c 1.288,-5.84267 2.132,-11.47467 2.56267,-16.89067 v -0.004 c 0.009,-0.128 0.02,-0.25467 0.0293,-0.38133 l 0.001,-0.008 c 0.001,-0.0307 0.004,-0.056 0.005,-0.0867 l 0.001,-0.008 c 0.004,-0.0613 0.009,-0.124 0.0133,-0.18533 l 10e-4,-0.008 c 0.001,-0.0307 0.004,-0.0627 0.007,-0.0933 v -10e-4 c 0.001,-0.0293 0.004,-0.0533 0.005,-0.084 0.001,-0.008 0.001,-0.0147 0.003,-0.0227 0.001,-0.024 0.003,-0.0493 0.005,-0.0747 0,-0.004 0,-0.008 0,-0.012 0.003,-0.028 0.004,-0.056 0.007,-0.0827 0,-0.008 0.001,-0.0187 0.001,-0.0267 10e-4,-0.0187 0.003,-0.0427 0.004,-0.0613 0.001,-0.012 0.001,-0.0147 0.003,-0.0267 0.001,-0.0253 0.003,-0.0547 0.005,-0.08 0,-0.008 10e-4,-0.0187 10e-4,-0.0267 0.001,-0.0213 0.003,-0.036 0.004,-0.0587 0.001,-0.012 0.001,-0.0187 0.003,-0.0307 0.001,-0.0267 0.003,-0.0493 0.004,-0.076 10e-4,-0.012 10e-4,-0.0187 0.003,-0.0307 0.001,-0.0187 0.003,-0.0347 0.004,-0.0547 0,-0.012 0.001,-0.0213 0.001,-0.0333 0.001,-0.0253 0.004,-0.0533 0.005,-0.0773 0,-0.004 0.001,-0.0187 0.001,-0.0227 0.001,-0.02 0.003,-0.0413 0.004,-0.0613 0,-0.008 10e-4,-0.024 0.003,-0.032 0.001,-0.02 0.001,-0.04 0.003,-0.0587 10e-4,-0.016 0.003,-0.036 0.004,-0.052 0,-0.0133 0.001,-0.032 0.003,-0.0467 0.001,-0.016 0.001,-0.0267 0.003,-0.0427 0.001,-0.0147 0.001,-0.0293 0.003,-0.0427 0.001,-0.02 0.003,-0.036 0.004,-0.056 0,-0.02 0.001,-0.032 0.003,-0.052 0.001,-0.016 0.001,-0.0293 0.003,-0.0453 0.001,-0.0133 0.001,-0.0227 0.003,-0.036 0.001,-0.028 0.003,-0.0493 0.004,-0.0773 10e-4,-0.012 10e-4,-0.024 0.003,-0.0347 0,-0.016 0.001,-0.036 0.003,-0.0507 0,-0.009 10e-4,-0.0173 10e-4,-0.0253 0.003,-0.06 0.007,-0.11733 0.009,-0.17733 0.001,-0.005 0.001,-0.008 0.001,-0.0147 0.004,-0.0627 0.007,-0.12533 0.0107,-0.188 v -0.004 c 0.001,-0.02 0.003,-0.0427 0.004,-0.0627 0,-0.003 0,-0.004 0,-0.007 3.14533,-58.48667 -42.44266,-91.55066 -93.988,-101.24666 -2.67066,-0.50267 -5.264,-0.996 -7.78133,-1.48 v -0.003 c -51.29067,-9.876 -70.81333,-16.428 -66.75466,-35.16133 0,-10e-4 0,-0.003 0,-0.003 10e-4,-0.008 0.004,-0.0173 0.005,-0.0253 0,0 0,-0.003 10e-4,-0.004 0.001,-0.007 0.003,-0.016 0.004,-0.0227 10e-4,-10e-4 10e-4,-0.005 10e-4,-0.007 0.003,-0.007 0.004,-0.0147 0.005,-0.0213 0,-0.003 0.001,-0.003 0.001,-0.005 10e-4,-0.007 0.003,-0.0147 0.004,-0.0213 0.001,-0.003 0.003,-0.007 0.003,-0.009 10e-4,-0.005 0.003,-0.0133 0.004,-0.0187 0.001,-0.004 0.001,-0.007 0.003,-0.009 10e-4,-0.007 0.003,-0.0133 0.004,-0.0187 0,-0.004 0.001,-0.007 0.003,-0.0107 10e-4,-0.007 10e-4,-0.0107 0.004,-0.0173 0,-0.004 0,-0.005 0.001,-0.009 10e-4,-0.007 0.003,-0.012 0.004,-0.0187 0.001,-0.004 0.003,-0.009 0.003,-0.012 10e-4,-0.007 0.003,-0.0107 0.004,-0.0173 0.001,-0.003 0.003,-0.009 0.003,-0.0133 0.001,-0.004 0.003,-0.009 0.004,-0.0133 0.001,-0.0107 0.004,-0.0187 0.007,-0.0293 v 0 c 0.92533,-4.052 4.02,-7.39867 8.89866,-9.896 0.21067,0.43467 0.65467,0.768 1.27467,0.768 0.003,0 0.005,0 0.008,0 0.0853,0 0.172,0 0.25733,0 8.66133,0 17.59333,2.13867 25.90267,4.288 24.97333,6.46 48.492,17.82133 70.528,31.05867 0.22133,0.13333 0.43466,0.19066 0.63333,0.19066 0.12533,0 0.244,-0.0227 0.35467,-0.0653 15.62666,0.18933 31.25333,0.37733 46.87999,0.56533 0.004,0 0.009,0 0.0133,0 1.09333,0 1.67466,-1.73466 0.728,-2.34933 -0.28534,-0.18667 -0.57067,-0.37067 -0.85734,-0.556 v -95.06133 c 0,0 -0.005,-0.004 -0.0147,-0.0107 l -0.0653,-0.0427 -0.0453,-0.0293 c -2.23733,-1.44933 -34.36133,-21.70266 -90.26,-26.636 V 276.7381 h -59.49733 c 0,-0.04 0,-0.0773 0,-0.11734 0,-0.764 -0.776,-1.212 -1.44533,-1.212 -17.24267,0 -34.48667,0 -51.72933,0 -0.76534,0 -1.212,0.77734 -1.212,1.44534 0,15.85466 0,31.712 0,47.56666 -29.668,3.19467 -60.56134,18.016 -80.53867,40.01067 -18.592,20.472 -27.65866,48.472 -26.79066,75.95866 0.792,25.076 12.30266,47.348 31.74533,63.052 19.5,15.75067 43.68533,24.372 67.56133,30.98 0.005,10e-4 0.009,0.003 0.0147,0.004 v 0 c 0.005,10e-4 0.009,0.003 0.0147,0.004 12.56,3.41067 25.28667,6.06667 37.932,9.128 8.93734,2.164 20.09867,4.19467 27.108,10.656 7.05467,6.50133 5.08933,18.21067 -3.668,22.14667 -3.24133,1.456 -7.064,2.09866 -10.75466,2.09866 -1.22534,0 -2.436,-0.0707 -3.60534,-0.20533 -0.0627,-0.008 -0.124,-0.0107 -0.184,-0.0107 -0.72133,0 -1.192,0.51334 -1.32133,1.08934 -25.972,-4.884 -57.784,-15.43467 -94.19067,-34.712 0,-0.27334 0,-0.54667 0,-0.82134 0,-0.76533 -0.776,-1.212 -1.444,-1.212 -16.98266,0 -33.96666,0 -50.94933,0 -0.764,0 -1.212,0.776 -1.212,1.444 0,14.244 0,28.48934 0,42.73467 0,9.85867 0,19.71733 0,29.57467 0,3.484 0,6.96666 0,10.44933 0,1.37466 -0.48266,3.78933 0,5.12 0.76534,2.10533 3.644,3.13066 5.556,4.21466 6.756,3.828 13.824,7.116 20.99334,10.08267 11.55066,4.77733 23.46799,8.672 35.55466,11.84133 7.944,2.08267 15.972,3.84267 24.05333,5.304 9.116,1.64934 18.88134,1.76 27.84,3.85867 0.264,0.0613 0.47867,0.0867 0.65334,0.0867 0.31733,0 0.50266,-0.0827 0.60666,-0.18"
         style="fill:#ffffff;fill-opacity:1;fill-rule:nonzero;stroke:none;stroke-width:0.133333" /><path
         id="path4"
         d="m -526.30985,631.45771 v -87.54267 h -50.94933 v 88.112 c 0,0 40.36133,27.28667 115.39867,34.10667 v 48.31986 h 45.47733 v -50.5932 c -70.48933,-2.27333 -109.92667,-32.40266 -109.92667,-32.40266"
         style="fill:#41532d;fill-opacity:1;fill-rule:nonzero;stroke:none;stroke-width:0.133333" /><path
         id="path5"
         d="m -311.21785,448.41371 47.18266,0.568 c -60.31466,-39.596 -120.91066,-46.89333 -144.55599,-36.03733 0.001,0 38.25466,-0.344 97.37333,35.46933"
         style="fill:#41532d;fill-opacity:1;fill-rule:nonzero;stroke:none;stroke-width:0.133333" /><path
         id="path6"
         d="m -476.07251,533.11371 c 39.22533,10.80133 70.62533,12 70.49066,30.69733 -0.13467,18.676 -23.89066,15.76134 -23.94533,15.75467 47.17733,8.60267 74.74266,-1.58533 75.10666,-11.776 0.568,-15.916 -14.212,-21.032 -40.36133,-27.85333 -26.14933,-6.82267 -142.116,-22.17067 -130.74666,-111.988 11.36933,-89.81733 110.28266,-101.756 110.28266,-101.756 v -49.45466 h -51.73066 v 48.88666 c 0,0 -89.81733,8.528 -105.16533,89.24933 -15.34934,80.72267 52.53733,106.252 96.06933,118.24"
         style="fill:#41532d;fill-opacity:1;fill-rule:nonzero;stroke:none;stroke-width:0.133333" /><path
         id="path7"
         d="m -570.36184,623.58971 c 0.0333,-23.70133 0.964,-47.54667 0.0547,-71.232 -0.032,-0.808 -1.38666,-0.76933 -1.41866,0.0387 -0.90934,23.67066 0.0267,47.50533 0.06,71.192 10e-4,0.84133 1.30266,0.84266 1.304,0.001"
         style="fill:#eaf9c2;fill-opacity:1;fill-rule:nonzero;stroke:none;stroke-width:0.133333" /><path
         id="path8"
         d="m -562.74718,602.53638 c 0.0867,-17.25734 0.86534,-34.7 0.02,-51.93467 -0.0387,-0.81733 -1.38533,-0.756 -1.424,0.0533 -0.83733,17.26267 -0.0493,34.732 0.028,52.01467 0.004,0.89333 1.372,0.74667 1.376,-0.13333"
         style="fill:#eaf9c2;fill-opacity:1;fill-rule:nonzero;stroke:none;stroke-width:0.133333" /><path
         id="path9"
         d="m -454.85785,708.16451 c 0.14934,-12.43334 0.212,-24.8708 -0.11466,-37.30014 -0.02,-0.776 -1.20934,-0.92 -1.22934,-0.11066 -0.30266,12.43733 -0.27333,24.88013 -0.11466,37.32026 0.012,0.92907 1.44666,1.03694 1.45866,0.0905"
         style="fill:#eaf9c2;fill-opacity:1;fill-rule:nonzero;stroke:none;stroke-width:0.133333" /><path
         id="path10"
         d="m -448.48051,695.21251 c 0.0147,-6.9428 0.47333,-14.02014 -0.02,-20.94414 -0.052,-0.73333 -1.28,-0.884 -1.33734,-0.0947 -0.50666,7.00933 -0.0453,14.17466 -0.032,21.2012 0.003,0.9016 1.38667,0.72666 1.38934,-0.1624"
         style="fill:#eaf9c2;fill-opacity:1;fill-rule:nonzero;stroke:none;stroke-width:0.133333" /><path
         id="path11"
         d="m -401.67252,577.13504 c 9.17867,-12.30266 3.24934,-30.62533 -12.51866,-33.264 -0.808,-0.136 -1.07733,1.16 -0.3,1.40267 13.90533,4.30667 20.24,18.592 11.76266,31.088 -0.412,0.608 0.60934,1.37067 1.056,0.77333"
         style="fill:#eaf9c2;fill-opacity:1;fill-rule:nonzero;stroke:none;stroke-width:0.133333" /><path
         id="path12"
         d="m -393.05118,576.82838 c 3.77866,-6.412 4.37866,-14.996 -0.332,-21.15867 -0.452,-0.592 -1.56667,-0.1 -1.21334,0.63867 3.09734,6.47733 3.95867,13.25066 0.27467,19.73866 -0.47333,0.832 0.78133,1.612 1.27067,0.78134"
         style="fill:#eaf9c2;fill-opacity:1;fill-rule:nonzero;stroke:none;stroke-width:0.133333" /><path
         id="path13"
         d="m -538.52985,497.98438 c -28.21999,-25.652 -34.61333,-71.76533 -16.98666,-105.17467 16.476,-31.23066 52.12533,-54.91066 87.24133,-57.89066 1.196,-0.10133 0.87867,-1.85067 -0.27467,-1.816 -35.82666,1.09067 -74.02,28.732 -89.65333,60.388 -17.012,34.452 -9.836,79.548 18.90933,105.30933 0.53334,0.47733 1.29867,-0.33067 0.764,-0.816"
         style="fill:#eaf9c2;fill-opacity:1;fill-rule:nonzero;stroke:none;stroke-width:0.133333" /><path
         id="path14"
         d="m -544.06585,481.52171 c -22.64533,-38.20666 -14.26799,-85.196 18.14934,-114.77466 0.792,-0.72134 -0.256,-1.95334 -1.08134,-1.26534 -34.25733,28.57067 -41.08799,78.99067 -18.01466,116.556 0.36133,0.588 1.30266,0.0827 0.94666,-0.516"
         style="fill:#eaf9c2;fill-opacity:1;fill-rule:nonzero;stroke:none;stroke-width:0.133333" /><path
         id="path15"
         d="m -458.96185,320.52838 c 0.032,-6.172 0.0627,-12.344 0.0827,-18.516 0.008,-2.56666 0.012,-5.13333 0.016,-7.7 0.001,-0.72133 -0.40667,-10.076 -0.81467,-9.76933 1.49067,-1.12267 7.87334,0.0107 9.72534,0.0147 8.83466,0.0107 17.67066,-0.0453 26.504,-0.0453 1.01866,0 0.86266,-1.57866 -0.152,-1.57866 -11.99734,0 -23.99734,-0.0467 -35.996,-0.0307 -0.41334,0 -0.892,0.272 -0.892,0.748 0.0173,12.24 0.0493,24.48 0.11333,36.72 0.004,0.90133 1.40933,1.07733 1.41333,0.15733"
         style="fill:#eaf9c2;fill-opacity:1;fill-rule:nonzero;stroke:none;stroke-width:0.133333" /><path
         id="path16"
         d="m -451.90318,314.00838 c 0.0293,-7.192 0.32667,-14.44666 -0.072,-21.62933 -0.044,-0.78933 -1.352,-0.80267 -1.39467,-0.003 -0.384,7.208 -0.10266,14.47334 -0.072,21.68934 0.004,0.992 1.53467,0.93333 1.53867,-0.0573"
         style="fill:#eaf9c2;fill-opacity:1;fill-rule:nonzero;stroke:none;stroke-width:0.133333" /><path
         id="path17"
         d="m -359.53385,417.70305 c 18.404,6.244 34.49333,15.93066 50.484,26.744 0.70267,0.47466 1.58133,-0.44267 0.89467,-1.024 -14.72934,-12.45334 -32.88134,-20.83734 -51.08267,-26.76534 -0.66667,-0.21733 -0.956,0.82134 -0.296,1.04534"
         style="fill:#eaf9c2;fill-opacity:1;fill-rule:nonzero;stroke:none;stroke-width:0.133333" /><path
         id="path18"
         d="m -329.29518,425.22438 c 11.02933,5.212 20.064,12.30667 29.604,19.748 0.66666,0.52 1.51733,-0.34133 0.912,-0.96533 -8.29867,-8.55734 -19.29334,-14.83867 -30.012,-19.81467 -0.66934,-0.31067 -1.17467,0.71467 -0.504,1.032"
         style="fill:#eaf9c2;fill-opacity:1;fill-rule:nonzero;stroke:none;stroke-width:0.133333" /><path
         id="path19"
         d="m -415.82185,325.01238 c -17.33066,-0.53866 -34.95066,-0.83866 -52.276,-0.13733 -0.99333,0.04 -0.93733,1.49067 0.0413,1.53067 17.28933,0.696 34.864,0.396 52.15866,-0.13734 0.79734,-0.0253 0.89867,-1.23066 0.076,-1.256"
         style="fill:#eaf9c2;fill-opacity:1;fill-rule:nonzero;stroke:none;stroke-width:0.133333" /><path
         id="path20"
         d="m -526.01118,629.80971 c -16.96267,-0.44134 -33.988,-0.19867 -50.95466,-0.11867 -1.02934,0.005 -1.23867,1.60933 -0.18667,1.61467 17.076,0.0787 34.204,0.30266 51.27466,-0.12 0.90667,-0.0213 0.73334,-1.35334 -0.13333,-1.376"
         style="fill:#eaf9c2;fill-opacity:1;fill-rule:nonzero;stroke:none;stroke-width:0.133333" /><path
         id="path21"
         d="m -416.16851,663.30704 c -15.20667,1.60267 -30.64667,1.56133 -45.828,3.55867 -0.85067,0.112 -0.66134,1.50266 0.18266,1.48133 10.22267,-0.25333 20.49867,-1.476 30.69067,-2.27333 3.94667,-0.308 10.27467,0.38933 13.99733,-1.164 0.29867,-0.12534 3.38667,-1.85867 0.95734,-1.60267"
         style="fill:#eaf9c2;fill-opacity:1;fill-rule:nonzero;stroke:none;stroke-width:0.133333" /><path
         id="path22"
         d="m -524.98185,631.34171 c 0,-29.18 0,-58.36133 0,-87.54267 0,-0.76533 -0.776,-1.212 -1.444,-1.212 -16.98266,0 -33.96666,0 -50.94933,0 -0.764,0 -1.212,0.776 -1.212,1.444 0,14.244 0,28.48934 0,42.73467 0,9.85867 0,19.71733 0,29.57467 0,3.484 0,6.96666 0,10.44933 0,1.37466 -0.48266,3.78933 0,5.12 0.76534,2.10533 3.644,3.13066 5.556,4.21466 6.756,3.828 13.824,7.116 20.99334,10.08267 11.55066,4.77733 23.46799,8.672 35.55466,11.84133 7.944,2.08267 15.972,3.84267 24.05333,5.304 9.116,1.64934 18.88134,1.76 27.84,3.85867 0.83867,0.196 1.188,0.0213 1.31334,-0.15467 0.23066,-0.32133 -0.292,-0.644 0.088,1.34267 0.33333,1.73867 0,3.88133 0,5.65067 0,5.23333 0,10.468 0,15.70133 0,8.27333 0,16.54533 0,24.81867 0,0.76413 0.776,1.212 1.444,1.212 15.16,0 30.31866,0 45.47733,0 0.76533,0 1.212,-0.776 1.212,-1.44534 0,-16.8624 0,-33.728 0,-50.592 0,-0.78266 -0.77733,-1.188 -1.444,-1.212 -27.84133,-1.02933 -55.628,-6.32266 -81.35067,-17.2 -9.496,-4.016 -19.33866,-8.62266 -27.60266,-14.89466 -1.36534,-1.036 -3.08534,1.00266 -1.71467,2.04266 8.81333,6.688 19.312,11.59334 29.464,15.80134 25.83067,10.70666 53.56267,15.87733 81.436,16.90666 -0.48133,-0.404 -0.96267,-0.80666 -1.444,-1.212 0,16.864 0,33.72934 0,50.59334 0.404,-0.4812 0.808,-0.9624 1.212,-1.44427 -15.15867,0 -30.31867,0 -45.47733,0 0.48133,0.40427 0.964,0.8084 1.444,1.21093 0,-16.1052 0,-32.212 0,-48.31866 0,-0.53734 -0.54534,-1.144 -1.08667,-1.19467 -38.04533,-3.592 -77.856,-12.31867 -111.27466,-31.68267 -0.97334,-0.56533 -2.22667,-1.08933 -3.06534,-1.84666 -0.46533,-0.41867 -0.41066,-0.14134 -0.26133,0.136 0.156,0.29066 0.416,0.58133 0.29067,0.0693 -0.79067,-3.22267 0,-7.67733 0,-10.96666 0,-14.81467 0,-29.62934 0,-44.444 0,-10.76267 0,-21.52667 0,-32.28934 -0.404,0.48 -0.808,0.96267 -1.212,1.444 16.98266,0 33.96533,0 50.94799,0 -0.48133,-0.404 -0.96266,-0.808 -1.444,-1.212 0,29.18134 0,58.36134 0,87.54267 0,1.716 2.656,1.47466 2.656,-0.232"
         style="fill:#41532d;fill-opacity:1;fill-rule:nonzero;stroke:none;stroke-width:0.133333" /><path
         id="path23"
         d="m -311.10052,449.74171 c 15.72667,0.18934 31.45467,0.37867 47.18133,0.568 1.10134,0.0133 1.692,-1.732 0.74134,-2.34933 -26.464,-17.2 -55.66,-30.67467 -86.64533,-37.22933 -18.54667,-3.92267 -41.248,-6.97467 -59.23334,0.964 -1.404,0.61866 -0.92666,2.584 0.58134,2.57733 8.74133,-0.0427 17.76933,2.11867 26.16,4.288 24.97333,6.46 48.492,17.82133 70.528,31.05867 1.472,0.884 2.59866,-1.536 1.14,-2.412 -22.24534,-13.36134 -45.98,-24.748 -71.18534,-31.26934 -8.64133,-2.23733 -17.876,-4.36533 -26.87466,-4.32266 0.19333,0.86 0.388,1.72 0.58133,2.58 17.58533,-7.76267 39.69067,-4.668 57.82133,-0.84 30.50667,6.44133 59.35467,19.712 85.412,36.648 0.24667,-0.78267 0.49467,-1.56667 0.74133,-2.34934 -15.72666,-0.18933 -31.45466,-0.37866 -47.18266,-0.56933 -1.71467,-0.02 -1.47067,2.636 0.23333,2.65733"
         style="fill:#41532d;fill-opacity:1;fill-rule:nonzero;stroke:none;stroke-width:0.133333" /><path
         id="path24"
         d="m -476.31251,534.42571 c 12.564,3.412 25.29733,6.07067 37.94666,9.132 8.93734,2.164 20.09867,4.19467 27.108,10.656 7.05467,6.50133 5.08933,18.21067 -3.668,22.14667 -4.31733,1.94 -9.66533,2.436 -14.36,1.89333 -1.69066,-0.196 -2.188,2.32267 -0.48266,2.624 20.97199,3.70133 47.99866,7.21467 67.90266,-2.94267 3.83467,-1.95733 7.89467,-4.82933 8.71067,-9.348 1.20666,-6.69066 -2.71467,-13.396 -7.82134,-17.31466 -12.176,-9.34534 -29.84133,-11.93334 -44.576,-15.16667 -13.37466,-2.93733 -26.70133,-6.12267 -39.69999,-10.46133 -31.50267,-10.51467 -65.42,-28.70134 -76.24,-62.424 -12.656,-39.44267 7.75066,-84.18667 39.54533,-108.11466 18.90267,-14.224 43.16267,-24.68267 66.81733,-27.584 0.76267,-0.0933 1.212,-0.7 1.212,-1.444 0,-16.48667 0,-32.97067 0,-49.45734 0,-0.764 -0.776,-1.212 -1.44533,-1.212 -17.24267,0 -34.48667,0 -51.72933,0 -0.76534,0 -1.212,0.77734 -1.212,1.44534 0,16.296 0,32.59066 0,48.888 0.404,-0.48267 0.808,-0.964 1.212,-1.44534 -30.03467,2.91734 -61.50134,17.84134 -81.75067,40.13467 -18.592,20.472 -27.65866,48.472 -26.79066,75.95866 0.792,25.076 12.30266,47.348 31.74533,63.052 19.50266,15.75333 43.696,24.376 67.576,30.984 1.656,0.45867 2.124,-2.16933 0.48133,-2.624 -42.372,-11.72533 -89.91866,-33.464 -96.40666,-82.43066 -3.67067,-27.70134 4.408,-57.82267 22.18,-79.45867 13.14799,-16.008 31.09999,-27.36 50.34399,-34.64266 10.456,-3.95734 21.67334,-7.23067 32.85334,-8.316 0.764,-0.0747 1.212,-0.716 1.212,-1.44534 0,-16.296 0,-32.59066 0,-48.888 -0.404,0.48267 -0.808,0.964 -1.212,1.44534 17.244,0 34.488,0 51.73066,0 -0.48133,-0.40534 -0.964,-0.808 -1.444,-1.212 0,16.48533 0,32.97066 0,49.456 0.40267,-0.48134 0.808,-0.96267 1.21067,-1.44534 -18.62133,2.28534 -37.39067,9.42134 -53.612,18.592 -32.78667,18.53333 -55.02,50.336 -58.28933,88.256 -3.05334,35.41467 16.04,63.58266 45.86533,80.94133 24.656,14.348 52.49333,20.95333 80.05866,27.10667 9.688,2.16266 19.496,4.60666 28.71467,8.3 7.76267,3.10933 21.244,11.35466 16.232,21.92533 -3.448,7.26933 -16.53067,9.33467 -23.324,10.34133 -16.444,2.43467 -33.29733,0.79867 -49.568,-2.07333 -0.16133,0.87467 -0.32133,1.74933 -0.48266,2.624 13.26666,1.532 31.29199,-6.97467 24.31333,-23.2 -3.47467,-8.08133 -13.46667,-11.37733 -21.15733,-13.732 -16.14667,-4.94133 -32.924,-7.71867 -49.21867,-12.144 -1.65733,-0.45067 -2.12667,2.17733 -0.48133,2.624"
         style="fill:#41532d;fill-opacity:1;fill-rule:nonzero;stroke:none;stroke-width:0.133333" /><path
         id="path25"
         d="m -264.03519,448.98171 v -96.63866 c 0,0 -32.40266,-21.60133 -90.38533,-26.71867 v -48.88666 h -60.82533 v 49.456 c 0,0 -98.91333,11.93733 -110.28266,101.75466 -11.36934,89.81733 104.59733,105.16533 130.74666,111.988 26.14933,6.82133 40.92933,11.93733 40.36133,27.85333 -0.56933,15.91733 -67.50533,31.83467 -171.88933,-23.87467 v 87.54267 c 0,0 39.43734,30.12933 109.92667,32.40266 v 50.5932 h 64.236 v -51.1612 c 0,0 82.42799,-9.096 98.91199,-80.72266 16.48667,-71.62667 -33.53866,-111.41866 -90.95333,-122.21866 -57.41466,-10.80134 -79.01599,-17.05467 -74.46799,-36.95067 5.24799,-22.96267 80.15333,-23.30667 154.62132,25.58133"
         style="fill:#a6cb66;fill-opacity:1;fill-rule:nonzero;stroke:none;stroke-width:0.133333" /><path
         id="path26"
         d="m -475.05785,654.78571 c -33.22933,-9.23867 -51.252,-23.328 -51.252,-23.328 v 0 c 0,0 17.94,13.70666 51.252,23.328"
         style="fill:#354a1f;fill-opacity:1;fill-rule:nonzero;stroke:none;stroke-width:0.133333" /><path
         id="path27"
         d="m -415.90718,662.64571 c -23.11333,0 -42.94267,-3.35334 -59.15067,-7.86 -33.312,-9.62134 -51.252,-23.328 -51.252,-23.328 v -3.31734 c 18.04667,8.932 69.35734,21.82934 112.06,23.20667 v 11.29333 c -0.55466,0.004 -1.10666,0.005 -1.65733,0.005"
         style="fill:#89b647;fill-opacity:1;fill-rule:nonzero;stroke:none;stroke-width:0.133333" /><path
         id="path28"
         d="m -352.14718,714.45357 h -62.912 v 0 h 62.912 v -51.1612 c 0,0 82.42799,-9.096 98.91199,-80.72266 0.008,-0.0307 0.0147,-0.0627 0.0227,-0.0933 -0.008,0.0293 -0.0147,0.064 -0.0227,0.0933 -16.484,71.62666 -98.91199,80.72266 -98.91199,80.72266 v 51.1612"
         style="fill:#cce397;fill-opacity:1;fill-rule:nonzero;stroke:none;stroke-width:0.133333" /><path
         id="path29"
         d="m -415.05918,714.45357 h -1.324 l -0.736,-16.74373 h 0.736 v 16.74373 h 1.324 v 0"
         style="fill:#354a1f;fill-opacity:1;fill-rule:nonzero;stroke:none;stroke-width:0.133333" /><path
         id="path30"
         d="m -253.20719,582.45371 c 0.005,-0.0267 0.012,-0.0573 0.0187,-0.084 -0.007,0.0267 -0.0133,0.0573 -0.0187,0.084 m 0.0213,-0.096 c 0.008,-0.0347 0.0133,-0.0613 0.0213,-0.096 -0.007,0.0307 -0.0147,0.0653 -0.0213,0.096 m 0.0253,-0.112 c 0.007,-0.0267 0.0133,-0.06 0.02,-0.0853 -0.007,0.0267 -0.0133,0.0573 -0.02,0.0853 m 0.0227,-0.0987 c 0.008,-0.0347 0.0147,-0.064 0.0227,-0.0987 -0.008,0.0333 -0.0147,0.0653 -0.0227,0.0987 m 0.024,-0.10533 c 0.008,-0.036 0.0133,-0.06 0.0213,-0.0947 -0.007,0.0307 -0.0147,0.064 -0.0213,0.0947 m 0.0227,-0.104 c 0.0147,-0.0653 0.0307,-0.13333 0.0453,-0.19867 -0.0147,0.0667 -0.0293,0.13334 -0.0453,0.19867 m 0.048,-0.21067 c 0.016,-0.0693 0.0293,-0.132 0.0453,-0.20133 -0.016,0.0693 -0.0307,0.13333 -0.0453,0.20133 m 0.0453,-0.20666 c 0.016,-0.0693 0.0307,-0.13467 0.0453,-0.204 -0.0147,0.068 -0.0293,0.136 -0.0453,0.204 m 0.0467,-0.208 c 1.288,-5.84534 2.13067,-11.472 2.56267,-16.89067 -0.43067,5.416 -1.27467,11.048 -2.56267,16.89067 m 2.56267,-16.89467 c 0.0107,-0.12933 0.02,-0.25333 0.0293,-0.38133 -0.009,0.12666 -0.02,0.25333 -0.0293,0.38133 m 0.0307,-0.38933 c 0.001,-0.032 0.004,-0.0547 0.005,-0.0867 -0.001,0.0307 -0.004,0.056 -0.005,0.0867 m 0.007,-0.0947 c 0.004,-0.064 0.009,-0.12133 0.0133,-0.18533 -0.004,0.0613 -0.009,0.124 -0.0133,0.18533 m 0.0147,-0.19333 c 0.001,-0.032 0.004,-0.0613 0.007,-0.0933 -0.003,0.0307 -0.005,0.0627 -0.007,0.0933 m 0.007,-0.0947 c 10e-4,-0.028 0.004,-0.056 0.005,-0.084 -0.001,0.0307 -0.004,0.0547 -0.005,0.084 m 0.008,-0.10667 c 0.001,-0.024 0.003,-0.0507 0.005,-0.0747 -0.003,0.0253 -0.004,0.0507 -0.005,0.0747 m 0.005,-0.0867 c 0.003,-0.028 0.004,-0.0547 0.007,-0.0827 -0.003,0.0267 -0.004,0.0547 -0.007,0.0827 m 0.008,-0.10934 c 0.001,-0.02 0.003,-0.0413 0.004,-0.0613 -10e-4,0.0187 -0.003,0.0427 -0.004,0.0613 m 0.007,-0.088 c 0.001,-0.024 0.003,-0.056 0.005,-0.08 -0.003,0.0253 -0.004,0.0547 -0.005,0.08 m 0.007,-0.10666 c 0.001,-0.02 0.003,-0.0387 0.004,-0.0587 -0.001,0.0227 -0.003,0.0373 -0.004,0.0587 m 0.007,-0.0893 c 10e-4,-0.024 0.003,-0.052 0.004,-0.076 -0.001,0.0267 -0.003,0.0493 -0.004,0.076 m 0.007,-0.10666 c 0.001,-0.016 0.003,-0.0387 0.004,-0.0547 -0.001,0.02 -0.003,0.036 -0.004,0.0547 m 0.005,-0.088 c 0.003,-0.028 0.004,-0.0493 0.005,-0.0773 -0.001,0.024 -0.004,0.052 -0.005,0.0773 m 0.007,-0.1 c 0.001,-0.024 0.003,-0.0373 0.004,-0.0613 -0.001,0.02 -0.003,0.0413 -0.004,0.0613 m 0.007,-0.0933 c 0.001,-0.02 0.001,-0.0387 0.003,-0.0587 -0.001,0.0187 -0.001,0.0387 -0.003,0.0587 m 0.007,-0.11066 c 0.001,-0.016 0.001,-0.0307 0.003,-0.0467 -0.001,0.0147 -0.003,0.0333 -0.003,0.0467 m 0.005,-0.0893 c 0.001,-0.012 0.001,-0.0307 0.003,-0.0427 -0.001,0.0133 -0.001,0.028 -0.003,0.0427 m 0.007,-0.0987 c 0,-0.016 0.001,-0.036 0.003,-0.052 -10e-4,0.02 -0.003,0.032 -0.003,0.052 m 0.005,-0.0973 c 0,-0.0107 0.001,-0.024 0.003,-0.036 -0.001,0.0133 -0.001,0.0227 -0.003,0.036 m 0.007,-0.11333 c 0.001,-0.012 0.001,-0.0227 0.003,-0.0347 -10e-4,0.0107 -10e-4,0.0227 -0.003,0.0347 m 0.005,-0.0853 c 0,-0.008 0.001,-0.0173 0.001,-0.0253 0,0.008 -0.001,0.016 -0.001,0.0253 m 0.0107,-0.20267 c 10e-4,-0.003 10e-4,-0.0107 10e-4,-0.0147 0,0.007 0,0.009 -10e-4,0.0147 m 0.012,-0.20267 v -0.004 0.004 m 0.004,-0.0667 c 0,-0.004 0,-0.003 0,-0.007 0,0.003 0,0.004 0,0.007"
         style="fill:#cce397;fill-opacity:1;fill-rule:nonzero;stroke:none;stroke-width:0.133333" /><path
         id="path31"
         d="m -352.14718,714.45357 h -64.236 v -16.74373 h 50.67733 l 0.736,-48.23347 c 0,0 80.16667,-6.81733 95.01866,-70.23333 9.22134,-39.376 -3.17733,-79.66933 -24.53066,-100.27733 27.60133,17.08267 46.33466,44.436 44.28133,82.632 0,0.004 0,0.003 0,0.007 -10e-4,0.0213 -0.003,0.04 -0.004,0.0627 v 0.004 c -0.004,0.0627 -0.007,0.12534 -0.0107,0.188 0,0.004 0,0.012 -0.001,0.0147 -0.003,0.0613 -0.007,0.11733 -0.009,0.17733 0,0.008 -0.001,0.0173 -0.001,0.0253 -10e-4,0.016 -0.003,0.0347 -0.003,0.0507 -0.001,0.012 -0.001,0.0227 -0.003,0.0347 -10e-4,0.024 -0.003,0.052 -0.004,0.0773 -0.001,0.012 -0.003,0.0253 -0.003,0.036 -0.001,0.0147 -0.001,0.032 -0.003,0.0453 -0.001,0.016 -0.003,0.036 -0.003,0.052 -0.001,0.016 -0.003,0.04 -0.004,0.056 -0.001,0.012 -0.001,0.0307 -0.003,0.0427 -0.001,0.016 -0.001,0.0267 -0.003,0.0427 -0.001,0.016 -0.001,0.0307 -0.003,0.0467 -0.001,0.02 -0.003,0.032 -0.004,0.052 -10e-4,0.02 -10e-4,0.0387 -0.003,0.0587 -0.001,0.0107 -0.001,0.0213 -0.003,0.032 -10e-4,0.024 -0.003,0.0373 -0.004,0.0613 0,0.008 -0.001,0.0133 -0.001,0.0227 -0.001,0.028 -0.003,0.0493 -0.005,0.0773 0,0.0107 -0.001,0.0227 -0.001,0.0333 -0.001,0.016 -0.003,0.0387 -0.004,0.0547 -0.001,0.009 -0.001,0.0213 -0.003,0.0307 -0.001,0.024 -0.003,0.052 -0.004,0.076 -0.001,0.009 -0.003,0.0227 -0.003,0.0307 -0.001,0.02 -0.003,0.0387 -0.004,0.0587 0,0.008 -10e-4,0.0187 -10e-4,0.0267 -0.003,0.024 -0.004,0.056 -0.005,0.08 -10e-4,0.0107 -10e-4,0.0147 -0.003,0.0267 -0.001,0.02 -0.003,0.0413 -0.004,0.0613 0,0.008 -0.001,0.0173 -0.001,0.0267 -0.003,0.028 -0.004,0.0547 -0.007,0.0827 0,0.005 0,0.007 0,0.012 -0.003,0.024 -0.004,0.0507 -0.005,0.0747 -0.001,0.007 -0.001,0.0173 -0.003,0.0227 -0.001,0.028 -0.004,0.056 -0.005,0.084 v 10e-4 c -0.003,0.032 -0.005,0.0613 -0.007,0.0933 0,0.003 -0.001,0.005 -0.001,0.008 -0.004,0.064 -0.009,0.12133 -0.0133,0.18533 0,0.003 0,0.005 -0.001,0.008 -0.001,0.032 -0.004,0.0547 -0.005,0.0867 l -0.001,0.008 c -0.009,0.128 -0.0187,0.252 -0.0293,0.38133 0,0.003 0,10e-4 0,0.004 -0.432,5.41867 -1.27467,11.04533 -2.56267,16.89067 0,0.003 0,0 -0.001,0.004 -0.0147,0.0693 -0.0293,0.13466 -0.0453,0.204 v 0.005 c -0.016,0.0693 -0.0293,0.132 -0.0453,0.20133 -0.001,0.004 -0.003,0.009 -0.003,0.012 -0.0147,0.0653 -0.0307,0.13334 -0.0453,0.19867 0,0.003 -0.001,0.007 -0.001,0.009 -0.008,0.0347 -0.0133,0.0587 -0.0213,0.0947 -0.001,0.003 -0.001,0.004 -0.001,0.007 -0.008,0.0347 -0.0147,0.064 -0.0227,0.0987 -10e-4,0.007 -10e-4,0.007 -0.003,0.0133 -0.007,0.0253 -0.0133,0.0587 -0.02,0.0853 -0.001,0.005 -0.003,0.0107 -0.004,0.016 -0.008,0.0347 -0.0133,0.0613 -0.0213,0.096 -0.001,0.005 -0.001,0.005 -0.003,0.012 -0.007,0.0267 -0.0133,0.0573 -0.0187,0.084 -0.003,0.009 -0.004,0.0133 -0.005,0.0227 -0.008,0.0307 -0.0147,0.0627 -0.0227,0.0933 -16.484,71.62666 -98.91199,80.72266 -98.91199,80.72266 v 51.1612"
         style="fill:#89b647;fill-opacity:1;fill-rule:nonzero;stroke:none;stroke-width:0.133333" /><path
         id="path32"
         d="m -354.40452,566.91504 c 0,-15.232 -14.71333,-20.284 -40.37733,-26.97866 -0.37467,-0.0987 -0.76667,-0.19734 -1.17733,-0.29867 0.41066,0.10133 0.80266,0.2 1.17733,0.29867 25.664,6.69466 40.37733,11.74666 40.37733,26.97866 m -41.56666,-27.28133 c -0.0107,-10e-4 -0.02,-0.004 -0.0307,-0.007 0.0107,0.003 0.02,0.004 0.0307,0.007 m -0.0347,-0.008 c -0.009,-0.003 -0.0187,-0.004 -0.028,-0.007 0.0107,0.003 0.0173,0.004 0.028,0.007"
         style="fill:#354a1f;fill-opacity:1;fill-rule:nonzero;stroke:none;stroke-width:0.133333" /><path
         id="path33"
         d="m -390.16052,601.59104 c -5.10266,-10e-4 -10.624,-0.33333 -16.552,-1.04666 -61.41466,-7.392 -103.46133,-28.06267 -119.59733,-36.38667 v -20.24267 c 55.18,29.44934 99.88934,38.88267 129.868,38.88134 26.732,0 41.75333,-7.504 42.02133,-15.00667 0.0107,-0.29467 0.016,-0.58667 0.016,-0.87467 0,-15.232 -14.71333,-20.284 -40.37733,-26.97866 -0.37467,-0.0987 -0.76667,-0.19734 -1.17733,-0.29867 -0.004,-10e-4 -0.008,-0.003 -0.012,-0.004 -0.0107,-0.003 -0.02,-0.004 -0.0307,-0.007 -10e-4,0 -0.004,-10e-4 -0.004,-10e-4 -0.0107,-0.003 -0.0173,-0.004 -0.028,-0.007 -13.25733,-3.264 -44.81733,-8.54933 -73.55466,-22.26133 39.03733,8.948 86.12666,15.04133 110.20266,23.00133 33.43733,11.05467 31.93467,61.23867 -30.77467,61.232"
         style="fill:#89b647;fill-opacity:1;fill-rule:nonzero;stroke:none;stroke-width:0.133333" /><path
         id="path34"
         d="m -354.42052,325.62438 h -15.37466 v -39.676 h -45.45067 v -9.21066 h 60.82533 v 48.88666 0"
         style="fill:#89b647;fill-opacity:1;fill-rule:nonzero;stroke:none;stroke-width:0.133333" /><path
         id="path35"
         d="m -351.96985,458.87105 c -51.31067,-9.87867 -70.81333,-16.428 -66.75466,-35.164 -4.05867,18.73333 15.46399,25.28533 66.75466,35.16133 v 0.003"
         style="fill:#cce397;fill-opacity:1;fill-rule:nonzero;stroke:none;stroke-width:0.133333" /><path
         id="path36"
         d="m -418.72451,423.70438 c 0.001,-0.008 0.004,-0.0173 0.005,-0.0253 -10e-4,0.008 -0.004,0.0173 -0.005,0.0253 m 0.007,-0.0293 c 10e-4,-0.008 0.003,-0.0147 0.004,-0.0227 -0.001,0.007 -0.003,0.016 -0.004,0.0227 m 0.005,-0.0293 c 0.003,-0.007 0.004,-0.0147 0.005,-0.0213 -10e-4,0.007 -0.003,0.0147 -0.005,0.0213 m 0.007,-0.0267 c 10e-4,-0.008 0.003,-0.0147 0.004,-0.0213 -0.001,0.007 -0.003,0.0147 -0.004,0.0213 m 0.007,-0.0307 c 10e-4,-0.007 0.003,-0.012 0.004,-0.0187 -0.001,0.005 -0.003,0.0133 -0.004,0.0187 m 0.007,-0.028 c 10e-4,-0.007 0.003,-0.012 0.004,-0.0187 -0.001,0.005 -0.003,0.012 -0.004,0.0187 m 0.007,-0.0293 c 10e-4,-0.007 0.003,-0.012 0.004,-0.0173 -0.003,0.007 -0.003,0.0107 -0.004,0.0173 m 0.005,-0.0267 c 10e-4,-0.007 0.003,-0.0133 0.004,-0.0187 -0.001,0.007 -0.003,0.012 -0.004,0.0187 m 0.007,-0.0307 c 10e-4,-0.007 0.003,-0.0107 0.004,-0.0173 -10e-4,0.007 -0.003,0.0107 -0.004,0.0173 m 0.007,-0.0307 c 10e-4,-0.004 0.003,-0.009 0.004,-0.0133 -10e-4,0.004 -0.003,0.009 -0.004,0.0133 m 154.61733,-71.11067 c -0.0187,-0.012 -0.056,-0.036 -0.11067,-0.072 l 0.0453,0.0293 0.0653,0.0427"
         style="fill:#cce397;fill-opacity:1;fill-rule:nonzero;stroke:none;stroke-width:0.133333" /><path
         id="path37"
         d="m -369.06318,459.38838 c -86.44933,0 -69.02933,-44.244 -63.27067,-53.19067 7.816,-12.14266 27.50533,-19.76666 52.91333,-19.76666 28.25734,0 63.588,9.436 97.48934,32.58 v -75.82133 l 0.28666,0.124 c 0.63334,0.27466 1.25867,0.54666 1.85867,0.81466 0.416,0.18534 0.80933,0.36667 1.20933,0.548 0.312,0.14267 0.62933,0.28534 0.93067,0.42534 0.392,0.18 0.76666,0.35733 1.14266,0.53466 0.28134,0.13334 0.56534,0.26667 0.83867,0.396 0.364,0.17467 0.716,0.34534 1.064,0.516 0.25867,0.12667 0.51733,0.252 0.768,0.376 0.33467,0.16667 0.664,0.32934 0.98267,0.49067 0.23333,0.11733 0.45866,0.232 0.68266,0.34667 0.30934,0.15733 0.61734,0.316 0.908,0.46666 0.208,0.108 0.40267,0.21067 0.6,0.31467 0.284,0.14933 0.572,0.30133 0.83867,0.444 0.15333,0.0827 0.29333,0.15867 0.44267,0.24 0.6,0.32533 1.156,0.632 1.656,0.91333 l 0.20933,0.116 c 0.21867,0.124 0.41067,0.236 0.60933,0.34934 0.12534,0.072 0.25867,0.148 0.37734,0.21733 0.172,0.1 0.328,0.192 0.48266,0.284 l 0.33734,0.2 c 0.13733,0.0813 0.264,0.15733 0.384,0.23067 l 0.28133,0.172 0.28133,0.17333 0.22934,0.144 0.16666,0.104 0.18134,0.116 0.0213,0.0133 c 0.0547,0.036 0.092,0.06 0.11067,0.072 l 0.0147,0.0107 v 95.06133 1.57733 c -44.00133,-28.88666 -88.15333,-40.584 -117.99999,-40.584 -11.75334,0 -21.28934,1.81334 -27.72267,5.10667 -4.87866,2.49733 -7.97333,5.844 -8.89866,9.896 v 0 c -0.003,0.009 -0.005,0.02 -0.007,0.0293 -10e-4,0.004 -0.003,0.009 -0.004,0.0133 0,0.005 -10e-4,0.009 -0.003,0.0133 -10e-4,0.007 -0.003,0.0107 -0.004,0.0173 0,0.003 -10e-4,0.008 -0.003,0.012 -10e-4,0.005 -0.003,0.012 -0.004,0.0187 0,0.003 -10e-4,0.007 -10e-4,0.009 -10e-4,0.005 -0.003,0.0107 -0.004,0.0173 -10e-4,0.004 -0.003,0.007 -0.003,0.0107 -10e-4,0.007 -0.003,0.012 -0.004,0.0187 -0.001,0.003 -0.001,0.007 -0.003,0.009 -10e-4,0.007 -0.003,0.012 -0.004,0.0187 -0.001,0.003 -0.001,0.005 -0.003,0.009 -10e-4,0.007 -0.003,0.0133 -0.004,0.0213 0,0.003 -0.001,0.003 -0.001,0.005 -10e-4,0.007 -0.003,0.0147 -0.005,0.0213 0,0.003 0,0.004 -10e-4,0.007 -0.001,0.008 -0.003,0.0147 -0.004,0.0227 -10e-4,0.003 -10e-4,0.003 -10e-4,0.004 -0.001,0.008 -0.004,0.0173 -0.005,0.0253 v 0.003 c -4.05867,18.736 15.44399,25.28533 66.75466,35.164 h 10e-4 c -6.112,0.352 -11.792,0.51733 -17.09466,0.51733"
         style="fill:#89b647;fill-opacity:1;fill-rule:nonzero;stroke:none;stroke-width:0.133333" /><path
         id="path38"
         d="m -262.70719,448.86571 c 0,-30.33466 0,-60.66933 0,-91.00399 0,-2.40267 0.608,-5.04534 -0.936,-6.84 -2.71866,-3.16267 -9.25066,-5.17734 -12.88266,-6.87334 -10.19067,-4.75866 -20.844,-8.52933 -31.668,-11.55866 -7.48533,-2.09467 -15.072,-3.81467 -22.72133,-5.18534 -3.732,-0.668 -7.47734,-1.25333 -11.23334,-1.756 -1.59066,-0.21333 -11.12133,-0.82933 -10.944,-0.56 -1.088,-1.65066 0,-7.668 0,-9.584 0,-5.47866 0,-10.95866 0,-16.43733 0,-7.48267 0,-14.964 0,-22.44667 0,-0.764 -0.776,-1.212 -1.444,-1.212 -20.276,0 -40.55066,0 -60.82666,0 -0.764,0 -1.21067,0.77734 -1.21067,1.44534 0,16.48533 0,32.97066 0,49.456 0.40267,-0.48134 0.808,-0.96267 1.21067,-1.44534 -24.72667,3.03467 -50.10667,14.03734 -69.65333,29.23067 -33.59867,26.11733 -54.44534,76.32266 -36.22267,117.276 15.64533,35.16133 55.204,51.71333 90.00533,61.28133 14.12534,3.88266 28.56133,6.43866 42.68267,10.32 10.73466,2.95066 28.62666,6.524 32.196,19.08533 1.73333,6.10267 -0.19067,9.76133 -5.36267,12.78533 -16.41867,9.60267 -40.448,7.368 -58.292,4.90134 -37.20666,-5.14134 -72.73333,-19.54667 -105.72933,-37.03467 -0.96533,-0.512 -1.89867,0.37467 -1.89867,1.32133 0,24.868 0,49.736 0,74.60267 0,4.63467 -1.912,11.84933 2.02134,14.952 9.16666,7.23333 21.19866,12.13333 31.944,16.31466 24.70266,9.61467 50.968,14.312 77.40533,15.288 -0.48133,-0.404 -0.96267,-0.80666 -1.444,-1.212 0,16.864 0,33.72934 0,50.59334 0,0.76413 0.776,1.212 1.444,1.212 21.412,0 42.824,0 64.236,0 0.76533,0 1.212,-0.776 1.212,-1.44427 0,-17.05467 0,-34.10773 0,-51.1624 -0.404,0.48267 -0.80667,0.964 -1.212,1.44533 20.69866,-2.332 41.86666,-10.832 58.95866,-22.5 33.81867,-23.08533 50.908,-65.54533 42.34667,-105.84133 -8.50667,-40.03733 -44.09467,-64.79333 -81.74667,-74.66399 -22.75866,-5.96667 -46.89333,-7.536 -68.88266,-16.37734 -9.94,-3.996 -23.46267,-14.66 -13.512,-26.27866 5.008,-5.848 14.116,-7.66534 21.33466,-8.56667 11.53334,-1.43867 23.332,-0.49733 34.75867,1.37333 33.588,5.49867 65.484,19.78 93.88133,38.23734 1.42267,0.924 3.15333,-1.108 1.71467,-2.04267 -24.36,-15.832 -50.93733,-28.428 -79.188,-35.50667 -18.70533,-4.68666 -39.876,-8.00266 -58.95333,-3.36133 -10.224,2.488 -19.90933,8.31467 -19.23333,20.07733 0.70533,12.256 14.36399,17.47067 24.26533,20.70667 22.772,7.44 46.92133,9.15867 69.75733,16.18933 20.948,6.44934 41.20267,17.57467 55.44933,34.53333 29.82,35.49334 24.544,92.39067 -6.81867,125.26133 -18.79466,19.69867 -47.24533,33.048 -74.36399,36.104 -0.76267,0.0867 -1.212,0.70534 -1.212,1.444 0,17.05334 0,34.10774 0,51.16134 0.404,-0.4812 0.808,-0.96147 1.212,-1.44427 -21.412,0 -42.824,0 -64.236,0 0.48133,0.40427 0.96267,0.8084 1.444,1.212 0,-16.86347 0,-33.72773 0,-50.59307 0,-0.78266 -0.77733,-1.188 -1.444,-1.212 -36.42533,-1.34666 -75.54667,-9.73066 -106.34,-30.27066 -0.70667,-0.472 -1.72667,-0.94934 -2.29467,-1.58934 -0.57333,-0.64266 0.29467,1.552 0.152,-0.256 -0.29866,-3.79333 0,-7.73333 0,-11.53333 0,-14.58666 0,-29.172 0,-43.75866 0,-10.44267 0,-20.884 0,-31.32534 -0.63333,0.44 -1.26533,0.88 -1.89866,1.32134 29.908,15.852 61.73066,28.99466 95.09733,35.38133 19.24533,3.68267 40.21466,5.77333 59.49466,1.09733 7.65734,-1.85733 19.31867,-5.64266 19.20667,-15.264 -0.23867,-20.748 -31.248,-25.45733 -46.46933,-28.90666 -34.17333,-7.74267 -70.42,-15.82534 -97.796,-39.18134 -16.45467,-14.03999 -26.70933,-33.19466 -27.568,-54.97866 -1.01867,-25.79867 8.488,-52.21867 25.29867,-71.72 20.544,-23.832 53.20133,-40.188 84.48666,-44.02666 0.76267,-0.0933 1.212,-0.7 1.212,-1.444 0,-16.48667 0,-32.97067 0,-49.45734 -0.404,0.48267 -0.808,0.964 -1.212,1.44534 20.27467,0 40.55067,0 60.82533,0 -0.48133,-0.40534 -0.96266,-0.808 -1.444,-1.212 0,16.296 0,32.59066 0,48.888 0,0.536 0.54534,1.14533 1.08667,1.19466 22.97467,2.13334 45.77467,6.88667 67.25733,15.42934 5.73467,2.28133 11.38133,4.81466 16.82533,7.72533 1.424,0.76133 2.88267,1.888 4.38134,2.46667 1.18933,0.45866 1.38133,1.5 0.83466,-0.003 0.72934,2.004 0,5.596 0,7.68933 0,5.62533 0,11.25067 0,16.876 0,14.572 0,29.144 0,43.71467 0,9.42133 0,18.84133 0,28.26266 0,1.716 2.656,1.47334 2.656,-0.232"
         style="fill:#41532d;fill-opacity:1;fill-rule:nonzero;stroke:none;stroke-width:0.133333" /><path
         id="path39"
         d="m -406.68985,283.17372 c 7.76,0.10133 15.52133,0.18666 23.284,0.24133 3.50133,0.024 7.004,0.0413 10.50667,0.064 0.664,0.004 9.83066,-0.23867 9.13866,-1.04533 1.24,1.44666 -0.0253,9.44266 -0.0293,11.28266 -0.0267,10.504 0.104,21.02267 0.104,31.51734 0,1.35333 2.09733,1.16666 2.09733,-0.18134 0,-14.02533 0.11467,-28.424 0.0747,-42.58533 -0.001,-0.588 -0.45067,-1.16933 -1.08,-1.16667 -14.71467,0.0693 -29.428,0.17067 -44.14133,0.37334 -0.97067,0.0133 -0.91734,1.48666 0.0453,1.5"
         style="fill:#41532d;fill-opacity:1;fill-rule:nonzero;stroke:none;stroke-width:0.133333" /><path
         id="path40"
         d="m -367.93385,287.54305 c -0.164,10.724 -0.29067,21.47067 0.009,32.192 0.032,1.13867 1.72534,1.096 1.76,-0.0333 0.32667,-10.72934 0.176,-21.49467 0.0107,-32.22667 -0.0187,-1.15333 -1.764,-1.072 -1.78,0.068"
         style="fill:#41532d;fill-opacity:1;fill-rule:nonzero;stroke:none;stroke-width:0.133333" /><path
         id="path41"
         d="m -427.42585,424.00705 c 0.58934,-12.59467 14.77867,-20.06134 25.28133,-23.144 18.78534,-5.512 40.19334,-3.36267 58.97734,1.14266 26.07866,6.252 52.10533,18.65334 72.50399,36.244 0.69467,0.6 1.952,-0.0227 1.952,-0.91866 0.004,-27.2 0.0133,-54.4 0.0133,-81.59867 0,-1.608 -2.50667,-1.77066 -2.50667,-0.15066 0,27.18266 0.009,54.36533 0.0133,81.54799 0.65067,-0.30666 1.30134,-0.61333 1.95334,-0.92 -23.78533,-20.504 -55.32933,-34.42666 -86.24933,-39.06533 -17.37734,-2.60667 -36.76667,-3.12533 -53.24667,3.84667 -9.404,3.97866 -19.82,11.672 -20.06133,22.896 -0.02,0.87866 1.328,1.00933 1.36933,0.12"
         style="fill:#41532d;fill-opacity:1;fill-rule:nonzero;stroke:none;stroke-width:0.133333" /><path
         id="path42"
         d="m -413.88585,452.47638 c -14.19866,-6.09333 -25.55066,-18.01867 -23.032,-34.52 1.50267,-9.836 8.54,-16.98133 17.02934,-21.51467 13.72933,-7.332 31.12799,-9.90666 46.58133,-8.876 1.284,0.0853 1.31733,-1.79733 0.0813,-1.968 -17.196,-2.36 -39.468,2.07867 -53.46,12.45334 -8.05066,5.96933 -12.87733,14.708 -12.69466,24.83333 0.28533,15.78 11.19066,25.32533 24.93866,30.928 0.75867,0.30933 1.31733,-1.008 0.556,-1.336"
         style="fill:#41532d;fill-opacity:1;fill-rule:nonzero;stroke:none;stroke-width:0.133333" /><path
         id="path43"
         d="m -275.74719,425.09905 c 0.28534,-20.86934 0.44134,-41.76934 0.22134,-62.64 -0.0133,-1.276 -1.976,-1.33067 -1.98934,-0.0427 -0.212,20.92667 -0.0333,41.87867 0.22134,62.80533 0.012,1.008 1.53333,0.86267 1.54666,-0.12266"
         style="fill:#41532d;fill-opacity:1;fill-rule:nonzero;stroke:none;stroke-width:0.133333" /><path
         id="path44"
         d="m -277.15652,501.54971 c 23.79467,33.624 23.9,81.18933 -2.44533,113.62133 -18.95733,23.33733 -49.544,36.66133 -79.22533,38.36 -0.68134,0.0387 -1.29867,0.524 -1.29867,1.256 -10e-4,8.75067 -0.003,17.49867 -0.003,26.248 -10e-4,8.928 -1.00666,18.51853 -0.003,27.40133 -0.30534,-2.70413 2.27866,-0.1896 -0.244,-1.10253 -1.544,-0.55893 -4.36934,-0.002 -6.00267,-0.002 -5.612,0 -11.224,0 -16.83467,0 -8.99866,0 -17.99733,0.0136 -26.996,0.0136 -1.63333,0 -1.71733,2.54107 -0.0787,2.54107 17.14266,0 34.28533,0.0136 51.428,0.012 0.68933,0 1.29333,-0.57187 1.29333,-1.27187 -0.001,-12.2068 -0.003,-24.41333 -0.003,-36.62133 0,-3.32534 0,-6.65067 -10e-4,-9.976 0,-1.6 -0.672,-5.06534 0,-6.536 0.44267,-0.972 -1.04,0.092 1.04533,0.44533 1.47334,0.248 3.35467,-0.3 4.84,-0.47733 3.968,-0.47334 7.908,-1.15067 11.808,-2.02134 37.2,-8.308 70.22667,-33.81733 79.62267,-71.90399 7.04666,-28.564 1.72266,-57.15734 -15.62934,-80.81734 -0.576,-0.78533 -1.84266,0.0267 -1.27333,0.83067"
         style="fill:#41532d;fill-opacity:1;fill-rule:nonzero;stroke:none;stroke-width:0.133333" /><path
         id="path45"
         d="m -403.01652,702.88171 c 12.58667,0.1344 25.19067,0.4292 37.77734,0.18653 1.04,-0.0199 1.09466,-1.81573 0.0387,-1.83853 -12.59466,-0.27347 -25.22,0.0427 -37.816,0.1828 -0.94666,0.0104 -0.94533,1.45826 0,1.4692"
         style="fill:#41532d;fill-opacity:1;fill-rule:nonzero;stroke:none;stroke-width:0.133333" /><path
         id="path46"
         d="m -518.82051,555.55371 c 32.43866,18.48133 68.124,30.08133 105.31733,33.75733 15.968,1.57867 35.064,3.88134 50.45733,-1.692 11.32933,-4.10133 21.27733,-15.81066 16.604,-28.28533 -0.38667,-1.03333 -2.108,-0.45067 -1.83067,0.61333 5.03334,19.42267 -16.068,27.38534 -31.33333,28.144 -15.432,0.76534 -31.09067,-0.44933 -46.35333,-2.72266 -32.13333,-4.78534 -63.48533,-15.46934 -91.924,-31.168 -0.91333,-0.504 -1.864,0.82533 -0.93733,1.35333"
         style="fill:#41532d;fill-opacity:1;fill-rule:nonzero;stroke:none;stroke-width:0.133333" /><path
         id="path47"
         d="m -510.95785,572.49771 c 41.55867,22.136 91.05867,30.68533 137.86,28.76533 1.21733,-0.0507 1.18267,-2.172 -0.0547,-2.15866 -46.82933,0.50933 -95.09866,-6.38 -137.17199,-28.048 -0.90267,-0.464 -1.52267,0.968 -0.63334,1.44133"
         style="fill:#41532d;fill-opacity:1;fill-rule:nonzero;stroke:none;stroke-width:0.133333" /><path
         id="path48"
         d="m -336.29652,311.39772 c 2.90667,-14.42267 6.16267,-28.88134 8.36134,-43.43067 0.236,-1.568 -2.05334,-1.83067 -2.404,-0.33467 -3.328,14.21734 -5.572,28.77334 -8.152,43.144 -0.256,1.424 1.90133,2.072 2.19466,0.62134"
         style="fill:#41532d;fill-opacity:1;fill-rule:nonzero;stroke:none;stroke-width:0.133333" /><path
         id="path49"
         d="m -322.88185,310.16305 c 10.53333,-19.92667 21.94133,-39.33067 33.15733,-58.872 0.692,-1.20667 -1.02266,-2.496 -1.784,-1.284 -12.00666,19.11333 -22.79466,38.99333 -33.304,58.96 -0.67733,1.28667 1.24667,2.48933 1.93067,1.196"
         style="fill:#41532d;fill-opacity:1;fill-rule:nonzero;stroke:none;stroke-width:0.133333" /><path
         id="path50"
         d="m -314.87918,316.31105 c 13.82933,-7.872 27.66,-15.74133 41.42799,-23.72133 1.45867,-0.84667 0.0573,-3.03467 -1.404,-2.20534 -13.82266,7.832 -27.58533,15.77067 -41.34799,23.708 -1.44,0.83067 -0.124,3.044 1.324,2.21867"
         style="fill:#41532d;fill-opacity:1;fill-rule:nonzero;stroke:none;stroke-width:0.133333" /><path
         id="path51"
         d="m -504.10051,675.98304 c -14.908,5.15867 -30.36267,10.00933 -44.72533,16.54813 -1.212,0.5516 -0.62934,2.37294 0.684,1.97867 15.12666,-4.5508 29.99333,-10.90013 44.63866,-16.80413 1.084,-0.43734 0.51733,-2.108 -0.59733,-1.72267"
         style="fill:#41532d;fill-opacity:1;fill-rule:nonzero;stroke:none;stroke-width:0.133333" /><path
         id="path52"
         d="m -497.37785,683.15904 c -10.21466,8.2 -19.84666,17.11067 -29.596,25.85347 -9.06533,8.12906 -18.42133,16.03426 -26.97466,24.7052 -0.83067,0.84266 0.452,2.2948 1.38933,1.5572 9.58933,-7.5588 18.464,-16.0692 27.544,-24.22547 9.704,-8.7172 19.56267,-17.29587 28.78,-26.53173 0.7,-0.70134 -0.34667,-1.99867 -1.14267,-1.35867"
         style="fill:#41532d;fill-opacity:1;fill-rule:nonzero;stroke:none;stroke-width:0.133333" /><path
         id="path53"
         d="m -489.82318,688.87504 c -6.94533,11.59467 -13.57867,23.82387 -17.83467,36.69213 -0.46666,1.40774 1.532,1.95987 2.12934,0.69427 5.76533,-12.21467 11.15866,-24.41827 17.968,-36.11973 0.844,-1.448 -1.40667,-2.69734 -2.26267,-1.26667"
         style="fill:#41532d;fill-opacity:1;fill-rule:nonzero;stroke:none;stroke-width:0.133333" /></g></g></svg>
